<?xml version="1.0" encoding="UTF-8" standalone="no"?>
<!-- Created with Inkscape (http://www.inkscape.org/) -->

<svg
   xmlns:dc="http://purl.org/dc/elements/1.1/"
   xmlns:cc="http://creativecommons.org/ns#"
   xmlns:rdf="http://www.w3.org/1999/02/22-rdf-syntax-ns#"
   xmlns:svg="http://www.w3.org/2000/svg"
   xmlns="http://www.w3.org/2000/svg"
   xmlns:xlink="http://www.w3.org/1999/xlink"
   xmlns:sodipodi="http://sodipodi.sourceforge.net/DTD/sodipodi-0.dtd"
   xmlns:inkscape="http://www.inkscape.org/namespaces/inkscape"
   width="416.90002"
   height="499.94116"
   id="svg20685"
   version="1.1"
   inkscape:version="0.48.2 r9819"
   sodipodi:docname="alojzy_melonik.svg">
  <defs
     id="defs20687">
    <linearGradient
       inkscape:collect="always"
       xlink:href="#linearGradient4098-3-2"
       id="linearGradient8617"
       gradientUnits="userSpaceOnUse"
       x1="219.61412"
       y1="354.02182"
       x2="219.61409"
       y2="362.27768" />
    <linearGradient
       id="linearGradient4098-3-2">
      <stop
         id="stop4100-0-0-4"
         style="stop-color: rgb(255, 177, 66); stop-opacity: 1;"
         offset="0" />
      <stop
         id="stop4104-9-6"
         style="stop-color: rgb(200, 118, 0); stop-opacity: 1;"
         offset="1" />
    </linearGradient>
    <linearGradient
       inkscape:collect="always"
       xlink:href="#linearGradient4098-3-2"
       id="linearGradient8619"
       gradientUnits="userSpaceOnUse"
       x1="238.98254"
       y1="354.02182"
       x2="238.98251"
       y2="362.27768" />
    <linearGradient
       id="linearGradient20385">
      <stop
         id="stop20387"
         style="stop-color: rgb(255, 177, 66); stop-opacity: 1;"
         offset="0" />
      <stop
         id="stop20389"
         style="stop-color: rgb(200, 118, 0); stop-opacity: 1;"
         offset="1" />
    </linearGradient>
    <linearGradient
       inkscape:collect="always"
       xlink:href="#linearGradient4098-3-2"
       id="linearGradient8621"
       gradientUnits="userSpaceOnUse"
       x1="229.43869"
       y1="354.02182"
       x2="229.43866"
       y2="362.27768" />
    <linearGradient
       id="linearGradient20392">
      <stop
         id="stop20394"
         style="stop-color: rgb(255, 177, 66); stop-opacity: 1;"
         offset="0" />
      <stop
         id="stop20396"
         style="stop-color: rgb(200, 118, 0); stop-opacity: 1;"
         offset="1" />
    </linearGradient>
    <linearGradient
       inkscape:collect="always"
       xlink:href="#linearGradient4098-3-2"
       id="linearGradient8623"
       gradientUnits="userSpaceOnUse"
       x1="176.38606"
       y1="354.02182"
       x2="176.38603"
       y2="362.27768" />
    <linearGradient
       id="linearGradient20399">
      <stop
         id="stop20401"
         style="stop-color: rgb(255, 177, 66); stop-opacity: 1;"
         offset="0" />
      <stop
         id="stop20403"
         style="stop-color: rgb(200, 118, 0); stop-opacity: 1;"
         offset="1" />
    </linearGradient>
    <linearGradient
       inkscape:collect="always"
       xlink:href="#linearGradient4098-3-2"
       id="linearGradient8625"
       gradientUnits="userSpaceOnUse"
       x1="195.75447"
       y1="354.02182"
       x2="195.75444"
       y2="362.27768" />
    <linearGradient
       id="linearGradient20406">
      <stop
         id="stop20408"
         style="stop-color: rgb(255, 177, 66); stop-opacity: 1;"
         offset="0" />
      <stop
         id="stop20410"
         style="stop-color: rgb(200, 118, 0); stop-opacity: 1;"
         offset="1" />
    </linearGradient>
    <linearGradient
       inkscape:collect="always"
       xlink:href="#linearGradient4098-3-2"
       id="linearGradient8627"
       gradientUnits="userSpaceOnUse"
       x1="186.21062"
       y1="354.02182"
       x2="186.21059"
       y2="362.27768" />
    <linearGradient
       id="linearGradient20413">
      <stop
         id="stop20415"
         style="stop-color: rgb(255, 177, 66); stop-opacity: 1;"
         offset="0" />
      <stop
         id="stop20417"
         style="stop-color: rgb(200, 118, 0); stop-opacity: 1;"
         offset="1" />
    </linearGradient>
    <linearGradient
       inkscape:collect="always"
       xlink:href="#linearGradient4098-3-2"
       id="linearGradient8629"
       gradientUnits="userSpaceOnUse"
       gradientTransform="matrix(0.64148,0,0,0.778051,125.373,117.529)"
       x1="346.23685"
       y1="537.41357"
       x2="359.4718"
       y2="537.41357" />
    <linearGradient
       id="linearGradient20420">
      <stop
         id="stop20422"
         style="stop-color: rgb(255, 177, 66); stop-opacity: 1;"
         offset="0" />
      <stop
         id="stop20424"
         style="stop-color: rgb(200, 118, 0); stop-opacity: 1;"
         offset="1" />
    </linearGradient>
    <linearGradient
       x1="219.61412"
       y1="354.02182"
       x2="219.61409"
       y2="362.27768"
       id="linearGradient3337-1-3"
       xlink:href="#linearGradient4098-3-6"
       gradientUnits="userSpaceOnUse" />
    <linearGradient
       id="linearGradient4098-3-6">
      <stop
         id="stop4100-0-1"
         style="stop-color: rgb(255, 177, 66); stop-opacity: 1;"
         offset="0" />
      <stop
         id="stop4104-9-0"
         style="stop-color: rgb(200, 118, 0); stop-opacity: 1;"
         offset="1" />
    </linearGradient>
    <linearGradient
       x1="238.98254"
       y1="354.02182"
       x2="238.98251"
       y2="362.27768"
       id="linearGradient3335-9-6"
       xlink:href="#linearGradient4098-3-6"
       gradientUnits="userSpaceOnUse" />
    <linearGradient
       id="linearGradient20431">
      <stop
         id="stop20433"
         style="stop-color: rgb(255, 177, 66); stop-opacity: 1;"
         offset="0" />
      <stop
         id="stop20435"
         style="stop-color: rgb(200, 118, 0); stop-opacity: 1;"
         offset="1" />
    </linearGradient>
    <linearGradient
       x1="229.43869"
       y1="354.02182"
       x2="229.43866"
       y2="362.27768"
       id="linearGradient3333-1-3"
       xlink:href="#linearGradient4098-3-6"
       gradientUnits="userSpaceOnUse" />
    <linearGradient
       id="linearGradient20438">
      <stop
         id="stop20440"
         style="stop-color: rgb(255, 177, 66); stop-opacity: 1;"
         offset="0" />
      <stop
         id="stop20442"
         style="stop-color: rgb(200, 118, 0); stop-opacity: 1;"
         offset="1" />
    </linearGradient>
    <linearGradient
       x1="176.38606"
       y1="354.02182"
       x2="176.38603"
       y2="362.27768"
       id="linearGradient3331-3-2"
       xlink:href="#linearGradient4098-3-6"
       gradientUnits="userSpaceOnUse" />
    <linearGradient
       id="linearGradient20445">
      <stop
         id="stop20447"
         style="stop-color: rgb(255, 177, 66); stop-opacity: 1;"
         offset="0" />
      <stop
         id="stop20449"
         style="stop-color: rgb(200, 118, 0); stop-opacity: 1;"
         offset="1" />
    </linearGradient>
    <linearGradient
       x1="195.75447"
       y1="354.02182"
       x2="195.75444"
       y2="362.27768"
       id="linearGradient3329-4-0"
       xlink:href="#linearGradient4098-3-6"
       gradientUnits="userSpaceOnUse" />
    <linearGradient
       id="linearGradient20452">
      <stop
         id="stop20454"
         style="stop-color: rgb(255, 177, 66); stop-opacity: 1;"
         offset="0" />
      <stop
         id="stop20456"
         style="stop-color: rgb(200, 118, 0); stop-opacity: 1;"
         offset="1" />
    </linearGradient>
    <linearGradient
       x1="186.21062"
       y1="354.02182"
       x2="186.21059"
       y2="362.27768"
       id="linearGradient3327-5-6"
       xlink:href="#linearGradient4098-3-6"
       gradientUnits="userSpaceOnUse" />
    <linearGradient
       id="linearGradient20459">
      <stop
         id="stop20461"
         style="stop-color: rgb(255, 177, 66); stop-opacity: 1;"
         offset="0" />
      <stop
         id="stop20463"
         style="stop-color: rgb(200, 118, 0); stop-opacity: 1;"
         offset="1" />
    </linearGradient>
    <linearGradient
       x1="346.23685"
       y1="537.41357"
       x2="359.4718"
       y2="537.41357"
       id="linearGradient3211-8-1"
       xlink:href="#linearGradient4098-3-6"
       gradientUnits="userSpaceOnUse"
       gradientTransform="matrix(0.64148,0,0,0.778051,125.373,117.529)" />
    <linearGradient
       id="linearGradient20466">
      <stop
         id="stop20468"
         style="stop-color: rgb(255, 177, 66); stop-opacity: 1;"
         offset="0" />
      <stop
         id="stop20470"
         style="stop-color: rgb(200, 118, 0); stop-opacity: 1;"
         offset="1" />
    </linearGradient>
    <linearGradient
       x1="219.61412"
       y1="354.02182"
       x2="219.61409"
       y2="362.27768"
       id="linearGradient3337-1"
       xlink:href="#linearGradient4098-3"
       gradientUnits="userSpaceOnUse" />
    <linearGradient
       id="linearGradient4098-3">
      <stop
         id="stop4100-0-7"
         style="stop-color: rgb(255, 177, 66); stop-opacity: 1;"
         offset="0" />
      <stop
         id="stop4104-9"
         style="stop-color: rgb(200, 118, 0); stop-opacity: 1;"
         offset="1" />
    </linearGradient>
    <linearGradient
       x1="238.98254"
       y1="354.02182"
       x2="238.98251"
       y2="362.27768"
       id="linearGradient3335-9"
       xlink:href="#linearGradient4098-3"
       gradientUnits="userSpaceOnUse" />
    <linearGradient
       id="linearGradient20477">
      <stop
         id="stop20479"
         style="stop-color: rgb(255, 177, 66); stop-opacity: 1;"
         offset="0" />
      <stop
         id="stop20481"
         style="stop-color: rgb(200, 118, 0); stop-opacity: 1;"
         offset="1" />
    </linearGradient>
    <linearGradient
       x1="229.43869"
       y1="354.02182"
       x2="229.43866"
       y2="362.27768"
       id="linearGradient3333-1"
       xlink:href="#linearGradient4098-3"
       gradientUnits="userSpaceOnUse" />
    <linearGradient
       id="linearGradient20484">
      <stop
         id="stop20486"
         style="stop-color: rgb(255, 177, 66); stop-opacity: 1;"
         offset="0" />
      <stop
         id="stop20488"
         style="stop-color: rgb(200, 118, 0); stop-opacity: 1;"
         offset="1" />
    </linearGradient>
    <linearGradient
       x1="176.38606"
       y1="354.02182"
       x2="176.38603"
       y2="362.27768"
       id="linearGradient3331-3"
       xlink:href="#linearGradient4098-3"
       gradientUnits="userSpaceOnUse" />
    <linearGradient
       id="linearGradient20491">
      <stop
         id="stop20493"
         style="stop-color: rgb(255, 177, 66); stop-opacity: 1;"
         offset="0" />
      <stop
         id="stop20495"
         style="stop-color: rgb(200, 118, 0); stop-opacity: 1;"
         offset="1" />
    </linearGradient>
    <linearGradient
       x1="195.75447"
       y1="354.02182"
       x2="195.75444"
       y2="362.27768"
       id="linearGradient3329-4"
       xlink:href="#linearGradient4098-3"
       gradientUnits="userSpaceOnUse" />
    <linearGradient
       id="linearGradient20498">
      <stop
         id="stop20500"
         style="stop-color: rgb(255, 177, 66); stop-opacity: 1;"
         offset="0" />
      <stop
         id="stop20502"
         style="stop-color: rgb(200, 118, 0); stop-opacity: 1;"
         offset="1" />
    </linearGradient>
    <linearGradient
       x1="186.21062"
       y1="354.02182"
       x2="186.21059"
       y2="362.27768"
       id="linearGradient3327-5"
       xlink:href="#linearGradient4098-3"
       gradientUnits="userSpaceOnUse" />
    <linearGradient
       id="linearGradient20505">
      <stop
         id="stop20507"
         style="stop-color: rgb(255, 177, 66); stop-opacity: 1;"
         offset="0" />
      <stop
         id="stop20509"
         style="stop-color: rgb(200, 118, 0); stop-opacity: 1;"
         offset="1" />
    </linearGradient>
    <linearGradient
       x1="346.23685"
       y1="537.41357"
       x2="359.4718"
       y2="537.41357"
       id="linearGradient3211-8"
       xlink:href="#linearGradient4098-3"
       gradientUnits="userSpaceOnUse"
       gradientTransform="matrix(0.64148,0,0,0.778051,125.373,117.529)" />
    <linearGradient
       id="linearGradient20512">
      <stop
         id="stop20514"
         style="stop-color: rgb(255, 177, 66); stop-opacity: 1;"
         offset="0" />
      <stop
         id="stop20516"
         style="stop-color: rgb(200, 118, 0); stop-opacity: 1;"
         offset="1" />
    </linearGradient>
    <linearGradient
       x1="219.61412"
       y1="354.02182"
       x2="219.61409"
       y2="362.27768"
       id="linearGradient3337-4"
       xlink:href="#linearGradient4098-4"
       gradientUnits="userSpaceOnUse" />
    <linearGradient
       id="linearGradient4098-4">
      <stop
         id="stop4100-30"
         style="stop-color: rgb(255, 177, 66); stop-opacity: 1;"
         offset="0" />
      <stop
         id="stop4104-7"
         style="stop-color: rgb(200, 118, 0); stop-opacity: 1;"
         offset="1" />
    </linearGradient>
    <linearGradient
       x1="238.98254"
       y1="354.02182"
       x2="238.98251"
       y2="362.27768"
       id="linearGradient3335-8"
       xlink:href="#linearGradient4098-4"
       gradientUnits="userSpaceOnUse" />
    <linearGradient
       id="linearGradient20523">
      <stop
         id="stop20525"
         style="stop-color: rgb(255, 177, 66); stop-opacity: 1;"
         offset="0" />
      <stop
         id="stop20527"
         style="stop-color: rgb(200, 118, 0); stop-opacity: 1;"
         offset="1" />
    </linearGradient>
    <linearGradient
       x1="229.43869"
       y1="354.02182"
       x2="229.43866"
       y2="362.27768"
       id="linearGradient3333-6"
       xlink:href="#linearGradient4098-4"
       gradientUnits="userSpaceOnUse" />
    <linearGradient
       id="linearGradient20530">
      <stop
         id="stop20532"
         style="stop-color: rgb(255, 177, 66); stop-opacity: 1;"
         offset="0" />
      <stop
         id="stop20534"
         style="stop-color: rgb(200, 118, 0); stop-opacity: 1;"
         offset="1" />
    </linearGradient>
    <linearGradient
       x1="176.38606"
       y1="354.02182"
       x2="176.38603"
       y2="362.27768"
       id="linearGradient3331-8"
       xlink:href="#linearGradient4098-4"
       gradientUnits="userSpaceOnUse" />
    <linearGradient
       id="linearGradient20537">
      <stop
         id="stop20539"
         style="stop-color: rgb(255, 177, 66); stop-opacity: 1;"
         offset="0" />
      <stop
         id="stop20541"
         style="stop-color: rgb(200, 118, 0); stop-opacity: 1;"
         offset="1" />
    </linearGradient>
    <linearGradient
       x1="195.75447"
       y1="354.02182"
       x2="195.75444"
       y2="362.27768"
       id="linearGradient3329-8"
       xlink:href="#linearGradient4098-4"
       gradientUnits="userSpaceOnUse" />
    <linearGradient
       id="linearGradient20544">
      <stop
         id="stop20546"
         style="stop-color: rgb(255, 177, 66); stop-opacity: 1;"
         offset="0" />
      <stop
         id="stop20548"
         style="stop-color: rgb(200, 118, 0); stop-opacity: 1;"
         offset="1" />
    </linearGradient>
    <linearGradient
       x1="186.21062"
       y1="354.02182"
       x2="186.21059"
       y2="362.27768"
       id="linearGradient3327-4"
       xlink:href="#linearGradient4098-4"
       gradientUnits="userSpaceOnUse" />
    <linearGradient
       id="linearGradient20551">
      <stop
         id="stop20553"
         style="stop-color: rgb(255, 177, 66); stop-opacity: 1;"
         offset="0" />
      <stop
         id="stop20555"
         style="stop-color: rgb(200, 118, 0); stop-opacity: 1;"
         offset="1" />
    </linearGradient>
    <linearGradient
       x1="346.23685"
       y1="537.41357"
       x2="359.4718"
       y2="537.41357"
       id="linearGradient3211-3"
       xlink:href="#linearGradient4098-4"
       gradientUnits="userSpaceOnUse"
       gradientTransform="matrix(0.64148,0,0,0.778051,125.373,117.529)" />
    <linearGradient
       id="linearGradient20558">
      <stop
         id="stop20560"
         style="stop-color: rgb(255, 177, 66); stop-opacity: 1;"
         offset="0" />
      <stop
         id="stop20562"
         style="stop-color: rgb(200, 118, 0); stop-opacity: 1;"
         offset="1" />
    </linearGradient>
    <linearGradient
       inkscape:collect="always"
       xlink:href="#linearGradient4098-3-6"
       id="linearGradient21346"
       gradientUnits="userSpaceOnUse"
       x1="219.61412"
       y1="354.02182"
       x2="219.61409"
       y2="362.27768" />
    <linearGradient
       inkscape:collect="always"
       xlink:href="#linearGradient4098-3-6"
       id="linearGradient21348"
       gradientUnits="userSpaceOnUse"
       x1="238.98254"
       y1="354.02182"
       x2="238.98251"
       y2="362.27768" />
    <linearGradient
       inkscape:collect="always"
       xlink:href="#linearGradient4098-3-6"
       id="linearGradient21350"
       gradientUnits="userSpaceOnUse"
       x1="229.43869"
       y1="354.02182"
       x2="229.43866"
       y2="362.27768" />
    <linearGradient
       inkscape:collect="always"
       xlink:href="#linearGradient4098-3-6"
       id="linearGradient21352"
       gradientUnits="userSpaceOnUse"
       x1="176.38606"
       y1="354.02182"
       x2="176.38603"
       y2="362.27768" />
    <linearGradient
       inkscape:collect="always"
       xlink:href="#linearGradient4098-3-6"
       id="linearGradient21354"
       gradientUnits="userSpaceOnUse"
       x1="195.75447"
       y1="354.02182"
       x2="195.75444"
       y2="362.27768" />
    <linearGradient
       inkscape:collect="always"
       xlink:href="#linearGradient4098-3-6"
       id="linearGradient21356"
       gradientUnits="userSpaceOnUse"
       x1="186.21062"
       y1="354.02182"
       x2="186.21059"
       y2="362.27768" />
    <linearGradient
       inkscape:collect="always"
       xlink:href="#linearGradient4098-3-6"
       id="linearGradient21358"
       gradientUnits="userSpaceOnUse"
       gradientTransform="matrix(0.64148,0,0,0.778051,125.373,117.529)"
       x1="346.23685"
       y1="537.41357"
       x2="359.4718"
       y2="537.41357" />
    <linearGradient
       inkscape:collect="always"
       xlink:href="#linearGradient4098-3-2"
       id="linearGradient21360"
       gradientUnits="userSpaceOnUse"
       x1="219.61412"
       y1="354.02182"
       x2="219.61409"
       y2="362.27768" />
    <linearGradient
       inkscape:collect="always"
       xlink:href="#linearGradient4098-3-2"
       id="linearGradient21362"
       gradientUnits="userSpaceOnUse"
       x1="238.98254"
       y1="354.02182"
       x2="238.98251"
       y2="362.27768" />
    <linearGradient
       inkscape:collect="always"
       xlink:href="#linearGradient4098-3-2"
       id="linearGradient21364"
       gradientUnits="userSpaceOnUse"
       x1="229.43869"
       y1="354.02182"
       x2="229.43866"
       y2="362.27768" />
    <linearGradient
       inkscape:collect="always"
       xlink:href="#linearGradient4098-3-2"
       id="linearGradient21366"
       gradientUnits="userSpaceOnUse"
       x1="176.38606"
       y1="354.02182"
       x2="176.38603"
       y2="362.27768" />
    <linearGradient
       inkscape:collect="always"
       xlink:href="#linearGradient4098-3-2"
       id="linearGradient21368"
       gradientUnits="userSpaceOnUse"
       x1="195.75447"
       y1="354.02182"
       x2="195.75444"
       y2="362.27768" />
    <linearGradient
       inkscape:collect="always"
       xlink:href="#linearGradient4098-3-2"
       id="linearGradient21370"
       gradientUnits="userSpaceOnUse"
       x1="186.21062"
       y1="354.02182"
       x2="186.21059"
       y2="362.27768" />
    <linearGradient
       inkscape:collect="always"
       xlink:href="#linearGradient4098-3-2"
       id="linearGradient21372"
       gradientUnits="userSpaceOnUse"
       gradientTransform="matrix(0.64148,0,0,0.778051,125.373,117.529)"
       x1="346.23685"
       y1="537.41357"
       x2="359.4718"
       y2="537.41357" />
    <linearGradient
       inkscape:collect="always"
       xlink:href="#linearGradient4098-3"
       id="linearGradient3365"
       gradientUnits="userSpaceOnUse"
       x1="219.61412"
       y1="354.02182"
       x2="219.61409"
       y2="362.27768" />
    <linearGradient
       inkscape:collect="always"
       xlink:href="#linearGradient4098-3"
       id="linearGradient3367"
       gradientUnits="userSpaceOnUse"
       x1="238.98254"
       y1="354.02182"
       x2="238.98251"
       y2="362.27768" />
    <linearGradient
       inkscape:collect="always"
       xlink:href="#linearGradient4098-3"
       id="linearGradient3369"
       gradientUnits="userSpaceOnUse"
       x1="229.43869"
       y1="354.02182"
       x2="229.43866"
       y2="362.27768" />
    <linearGradient
       inkscape:collect="always"
       xlink:href="#linearGradient4098-3"
       id="linearGradient3371"
       gradientUnits="userSpaceOnUse"
       x1="176.38606"
       y1="354.02182"
       x2="176.38603"
       y2="362.27768" />
    <linearGradient
       inkscape:collect="always"
       xlink:href="#linearGradient4098-3"
       id="linearGradient3373"
       gradientUnits="userSpaceOnUse"
       x1="195.75447"
       y1="354.02182"
       x2="195.75444"
       y2="362.27768" />
    <linearGradient
       inkscape:collect="always"
       xlink:href="#linearGradient4098-3"
       id="linearGradient3375"
       gradientUnits="userSpaceOnUse"
       x1="186.21062"
       y1="354.02182"
       x2="186.21059"
       y2="362.27768" />
    <linearGradient
       inkscape:collect="always"
       xlink:href="#linearGradient4098-3"
       id="linearGradient3377"
       gradientUnits="userSpaceOnUse"
       gradientTransform="matrix(0.64148,0,0,0.778051,125.373,117.529)"
       x1="346.23685"
       y1="537.41357"
       x2="359.4718"
       y2="537.41357" />
    <linearGradient
       inkscape:collect="always"
       xlink:href="#linearGradient4098-4"
       id="linearGradient3379"
       gradientUnits="userSpaceOnUse"
       x1="219.61412"
       y1="354.02182"
       x2="219.61409"
       y2="362.27768" />
    <linearGradient
       inkscape:collect="always"
       xlink:href="#linearGradient4098-4"
       id="linearGradient3381"
       gradientUnits="userSpaceOnUse"
       x1="238.98254"
       y1="354.02182"
       x2="238.98251"
       y2="362.27768" />
    <linearGradient
       inkscape:collect="always"
       xlink:href="#linearGradient4098-4"
       id="linearGradient3383"
       gradientUnits="userSpaceOnUse"
       x1="229.43869"
       y1="354.02182"
       x2="229.43866"
       y2="362.27768" />
    <linearGradient
       inkscape:collect="always"
       xlink:href="#linearGradient4098-4"
       id="linearGradient3385"
       gradientUnits="userSpaceOnUse"
       x1="176.38606"
       y1="354.02182"
       x2="176.38603"
       y2="362.27768" />
    <linearGradient
       inkscape:collect="always"
       xlink:href="#linearGradient4098-4"
       id="linearGradient3387"
       gradientUnits="userSpaceOnUse"
       x1="195.75447"
       y1="354.02182"
       x2="195.75444"
       y2="362.27768" />
    <linearGradient
       inkscape:collect="always"
       xlink:href="#linearGradient4098-4"
       id="linearGradient3389"
       gradientUnits="userSpaceOnUse"
       x1="186.21062"
       y1="354.02182"
       x2="186.21059"
       y2="362.27768" />
    <linearGradient
       inkscape:collect="always"
       xlink:href="#linearGradient4098-4"
       id="linearGradient3391"
       gradientUnits="userSpaceOnUse"
       gradientTransform="matrix(0.64148,0,0,0.778051,125.373,117.529)"
       x1="346.23685"
       y1="537.41357"
       x2="359.4718"
       y2="537.41357" />
    <linearGradient
       inkscape:collect="always"
       xlink:href="#linearGradient4098-3"
       id="linearGradient3393"
       gradientUnits="userSpaceOnUse"
       x1="219.61412"
       y1="354.02182"
       x2="219.61409"
       y2="362.27768" />
    <linearGradient
       inkscape:collect="always"
       xlink:href="#linearGradient4098-3"
       id="linearGradient3395"
       gradientUnits="userSpaceOnUse"
       x1="238.98254"
       y1="354.02182"
       x2="238.98251"
       y2="362.27768" />
    <linearGradient
       inkscape:collect="always"
       xlink:href="#linearGradient4098-3"
       id="linearGradient3397"
       gradientUnits="userSpaceOnUse"
       x1="229.43869"
       y1="354.02182"
       x2="229.43866"
       y2="362.27768" />
    <linearGradient
       inkscape:collect="always"
       xlink:href="#linearGradient4098-3"
       id="linearGradient3399"
       gradientUnits="userSpaceOnUse"
       x1="176.38606"
       y1="354.02182"
       x2="176.38603"
       y2="362.27768" />
    <linearGradient
       inkscape:collect="always"
       xlink:href="#linearGradient4098-3"
       id="linearGradient3401"
       gradientUnits="userSpaceOnUse"
       x1="195.75447"
       y1="354.02182"
       x2="195.75444"
       y2="362.27768" />
    <linearGradient
       inkscape:collect="always"
       xlink:href="#linearGradient4098-3"
       id="linearGradient3403"
       gradientUnits="userSpaceOnUse"
       x1="186.21062"
       y1="354.02182"
       x2="186.21059"
       y2="362.27768" />
    <linearGradient
       inkscape:collect="always"
       xlink:href="#linearGradient4098-3"
       id="linearGradient3405"
       gradientUnits="userSpaceOnUse"
       gradientTransform="matrix(0.64148,0,0,0.778051,125.373,117.529)"
       x1="346.23685"
       y1="537.41357"
       x2="359.4718"
       y2="537.41357" />
  </defs>
  <sodipodi:namedview
     id="base"
     pagecolor="#ffffff"
     bordercolor="#666666"
     borderopacity="1.0"
     inkscape:pageopacity="0.0"
     inkscape:pageshadow="2"
     inkscape:zoom="0.7"
     inkscape:cx="449.34216"
     inkscape:cy="556.46229"
     inkscape:document-units="px"
     inkscape:current-layer="layer1"
     showgrid="false"
     inkscape:snap-bbox="false"
     inkscape:snap-page="false"
     inkscape:window-width="2560"
     inkscape:window-height="1387"
     inkscape:window-x="0"
     inkscape:window-y="0"
     inkscape:window-maximized="1"
     fit-margin-top="0"
     fit-margin-left="0"
     fit-margin-right="0"
     fit-margin-bottom="0" />
  <metadata
     id="metadata20690">
    <rdf:RDF>
      <cc:Work
         rdf:about="">
        <dc:format>image/svg+xml</dc:format>
        <dc:type
           rdf:resource="http://purl.org/dc/dcmitype/StillImage" />
        <dc:title />
      </cc:Work>
    </rdf:RDF>
  </metadata>
  <g
     inkscape:label="Layer 1"
     inkscape:groupmode="layer"
     id="layer1"
     transform="translate(-444.99084,-342.47408)">
    <g
       transform="matrix(1.1029574,0,0,1.1029574,-657.93335,765.62525)"
       id="g20231">
      <path
         inkscape:export-ydpi="29.668859"
         inkscape:export-xdpi="29.668859"
         inkscape:export-filename="/home/bocian/Pulpit/rose.png"
         style="fill:#000000;fill-opacity:1;stroke:#000000;stroke-width:5.54681158;stroke-linecap:butt;stroke-linejoin:miter;stroke-miterlimit:4;stroke-opacity:1;stroke-dasharray:none;display:inline"
         d="m 1188.7205,-261.57103 c 36.9498,-0.19187 62.2546,0.24444 92.6004,-7.07379 20.0285,-4.83008 41.298,-2.22637 41.298,-2.22637 -0.093,0.10618 5.3974,-1.08624 2.5945,2.27016 -7.0207,8.40716 -21.2909,21.22553 -46.4841,26.18669 -61.129,6.36913 -121.5362,6.45666 -181.4992,2.67768 -14.642,-0.71226 -25.1677,-8.96954 -35.2952,-17.5702 -8.9431,-7.59486 -12.5963,-19.00112 5.3498,-13.73359 17.6215,5.17224 84.486,9.66128 121.4358,9.46942 z"
         id="path3652-5"
         sodipodi:nodetypes="cscsccszz"
         inkscape:connector-curvature="0" />
      <g
         inkscape:export-ydpi="29.668859"
         inkscape:export-xdpi="29.668859"
         inkscape:export-filename="/home/bocian/Pulpit/rose.png"
         id="layer1-7"
         transform="translate(837.82117,-666.20265)"
         style="display:inline">
        <path
           style="fill:url(#linearGradient3393);fill-opacity:1;fill-rule:nonzero;stroke:#000000;stroke-width:2.86870003;stroke-linecap:round;stroke-linejoin:round;stroke-miterlimit:4;stroke-opacity:1;stroke-dasharray:none"
           id="path3226-3"
           transform="matrix(1.78125,0,0,1.70547,-35.0087,108.105)"
           d="m 214,353.12833 a 8,13.5 0 1 1 -16,0 8,13.5 0 1 1 16,0 z"
           inkscape:connector-curvature="0" />
        <path
           style="fill:url(#linearGradient3395);fill-opacity:1;fill-rule:nonzero;stroke:#000000;stroke-width:2.86870003;stroke-linecap:round;stroke-linejoin:round;stroke-miterlimit:4;stroke-opacity:1;stroke-dasharray:none"
           id="path3228-3"
           transform="matrix(1.78125,0,0,1.70547,-69.5087,108.105)"
           d="m 214,353.12833 a 8,13.5 0 1 1 -16,0 8,13.5 0 1 1 16,0 z"
           inkscape:connector-curvature="0" />
        <path
           style="fill:url(#linearGradient3397);fill-opacity:1;fill-rule:nonzero;stroke:#000000;stroke-width:2.86870003;stroke-linecap:round;stroke-linejoin:round;stroke-miterlimit:4;stroke-opacity:1;stroke-dasharray:none"
           id="path3230-8"
           transform="matrix(1.78125,0,0,1.70547,-52.5087,108.105)"
           d="m 214,353.12833 a 8,13.5 0 1 1 -16,0 8,13.5 0 1 1 16,0 z"
           inkscape:connector-curvature="0" />
        <path
           style="fill:url(#linearGradient3399);fill-opacity:1;fill-rule:nonzero;stroke:#000000;stroke-width:2.86870003;stroke-linecap:round;stroke-linejoin:round;stroke-miterlimit:4;stroke-opacity:1;stroke-dasharray:none"
           id="path3224-9"
           transform="matrix(1.78125,0,0,1.70547,41.9913,108.105)"
           d="m 214,353.12833 a 8,13.5 0 1 1 -16,0 8,13.5 0 1 1 16,0 z"
           inkscape:connector-curvature="0" />
        <path
           style="fill:url(#linearGradient3401);fill-opacity:1;fill-rule:nonzero;stroke:#000000;stroke-width:2.86870003;stroke-linecap:round;stroke-linejoin:round;stroke-miterlimit:4;stroke-opacity:1;stroke-dasharray:none"
           id="path3220-5"
           transform="matrix(1.78125,0,0,1.70547,7.49133,108.105)"
           d="m 214,353.12833 a 8,13.5 0 1 1 -16,0 8,13.5 0 1 1 16,0 z"
           inkscape:connector-curvature="0" />
        <path
           style="fill:url(#linearGradient3403);fill-opacity:1;fill-rule:nonzero;stroke:#000000;stroke-width:2.86870003;stroke-linecap:round;stroke-linejoin:round;stroke-miterlimit:4;stroke-opacity:1;stroke-dasharray:none"
           id="path3222-5"
           transform="matrix(1.78125,0,0,1.70547,24.4913,108.105)"
           d="m 214,353.12833 a 8,13.5 0 1 1 -16,0 8,13.5 0 1 1 16,0 z"
           inkscape:connector-curvature="0" />
        <path
           style="fill:#000000;fill-opacity:0.31372603;fill-rule:nonzero;stroke:none"
           id="path3250-3"
           transform="translate(162.179,366.202)"
           d="m 135.25,321.125 c -5.8064,0 -10.78031,5.63035 -13,13.6875 18.97108,5.07429 39.81417,8.03415 61.71875,8.4375 -0.29837,-12.28481 -6.54288,-22.12499 -14.21875,-22.125 -3.30091,0 -6.3333,1.82747 -8.75,4.875 -2.4167,-3.04753 -5.44909,-4.87499 -8.75,-4.875 -3.18578,0 -6.12606,1.70484 -8.5,4.5625 -2.37394,-2.85766 -5.31422,-4.56249 -8.5,-4.5625 z m 77,0 c -7.65621,0 -13.8907,9.79047 -14.21875,22.03125 21.88058,-0.70434 42.61585,-3.98355 61.4375,-9.34375 -2.3472,-7.51562 -7.15711,-12.68749 -12.71875,-12.6875 -3.30091,0 -6.3333,1.82747 -8.75,4.875 -2.4167,-3.04753 -5.44909,-4.87499 -8.75,-4.875 -3.18578,0 -6.12606,1.70484 -8.5,4.5625 -2.37394,-2.85766 -5.31422,-4.56249 -8.5,-4.5625 z"
           inkscape:connector-curvature="0" />
        <path
           style="fill:#784421;fill-opacity:1;fill-rule:nonzero;stroke:#000000;stroke-width:5;stroke-linecap:round;stroke-linejoin:miter;stroke-miterlimit:4;stroke-opacity:1;stroke-dasharray:none"
           id="path2385-8"
           d="m 516.8372,534.26593 a 165.56416,165.56416 0 1 1 -331.12832,0 165.56416,165.56416 0 1 1 331.12832,0 z"
           inkscape:connector-curvature="0" />
        <path
           style="fill:#ffffff;fill-opacity:1;fill-rule:nonzero;stroke:#000000;stroke-width:4.41175985;stroke-linecap:round;stroke-linejoin:round;stroke-miterlimit:4;stroke-opacity:1"
           id="path3167-6"
           transform="matrix(1.13333,0,0,1.13333,-41.3386,-43.7463)"
           d="m 418.63184,583.05383 c -23.38235,-4.34433 -1.98299,19.08631 -5.56831,27.55829 -14.17356,-6.96919 -8.77298,16.10296 -15.18229,22.51228 -12.14461,-0.6495 -14.0403,11.59697 -22.51228,15.18229 -10.2367,-5.67938 -17.78497,5.56832 -27.55829,5.56832 -9.77332,0 -15.5569,-10.80652 -27.55829,-5.56832 -8.47198,-3.58532 -10.36767,-15.39062 -22.51228,-15.18229 -6.40932,-6.40932 -5.4205,-30.80501 -15.1823,-22.51228 -3.58532,-8.47198 12.9611,-33.66732 -5.56831,-27.55829 0,-9.77332 19.63005,-27.90983 5.56831,-27.55829 3.58533,-8.47198 21.5671,-14.77943 15.1823,-22.51228 12.81863,-12.81863 30.52393,-20.7506 50.07057,-20.7506 19.54664,0 37.25194,7.93197 50.07057,20.7506 -9.47304,4.64461 11.59697,14.0403 15.18229,22.51228 -15.82645,-0.79272 5.56831,17.78497 5.56831,27.55829 z"
           inkscape:connector-curvature="0" />
        <path
           style="fill:#000000;fill-opacity:0.31372603;fill-rule:evenodd;stroke:none"
           id="path3211-0"
           transform="translate(162.179,366.202)"
           d="m 335.375,90.5 c 1.98061,10.23246 3.03125,20.78543 3.03125,31.59375 0,3.72989 -0.13179,7.42509 -0.375,11.09375 -3.67259,-0.18281 -7.57831,0.019 -11.75,0.625 -35.21544,7.49865 -20.17331,51.66406 -29.34375,97.875 -30.34233,34.32869 -74.70943,55.96875 -124.09375,55.96875 -30.37329,0 -58.83164,-8.20726 -83.3125,-22.5 C 65.852043,209.71366 97.607454,149.49163 55.875,139.09375 9.76453,130.76839 -8.0954791,173.55 21.71875,237.65625 38.179726,273.05048 65.441652,290.43601 85.5,297.1875 c 28.36337,22.80037 64.39183,36.4375 103.59375,36.4375 45.94954,0 87.55719,-18.73944 117.5625,-49 17.45353,-8.71747 36.86154,-24.59496 50.34375,-51.15625 25.2124,-49.6709 20.38473,-87.07842 -5.46875,-97.4375 C 348.36139,119.89524 342.86527,104.58934 335.375,90.5 z"
           inkscape:connector-curvature="0" />
        <path
           style="fill:#784421;fill-opacity:1;fill-rule:evenodd;stroke:#000000;stroke-width:5;stroke-linecap:butt;stroke-linejoin:miter;stroke-miterlimit:4;stroke-opacity:1;stroke-dasharray:none"
           id="path3169-3"
           d="m 217.9154,497.24676 c 48.1112,17.30003 -14.16343,94.14271 37.81914,161.19179 9.60838,12.39326 -57.86796,2.09077 -81.72278,-66.58505 -23.19831,-66.78576 -1.13236,-107.53908 43.90364,-94.60674 z"
           inkscape:connector-curvature="0" />
        <path
           style="fill:#784421;fill-opacity:1;fill-rule:evenodd;stroke:#000000;stroke-width:5;stroke-linecap:butt;stroke-linejoin:miter;stroke-miterlimit:4;stroke-opacity:1;stroke-dasharray:none"
           id="path3800-3"
           d="m 484.35799,497.24676 c -48.1112,17.30003 14.16343,94.14271 -37.81914,161.19179 -9.60838,12.39326 57.86796,2.09077 81.72278,-66.58505 23.19831,-66.78576 1.13236,-107.53908 -43.90364,-94.60674 z"
           inkscape:connector-curvature="0" />
        <path
           style="fill:#784421;fill-opacity:1;fill-rule:evenodd;stroke:#000000;stroke-width:5;stroke-linecap:round;stroke-linejoin:round;stroke-miterlimit:4;stroke-opacity:1;stroke-dasharray:none"
           id="path2413-6"
           d="m 466.68279,488.19932 c 13.38868,-4.60902 27.22104,7.58384 29.86518,14.17993 -13.51228,-3.45229 -19.71963,-4.4258 -23.21838,-1.38072 1.50674,3.37144 17.40824,6.74191 22.33733,28.87115 -12.42877,-8.61661 -22.30354,-18.57557 -26.27241,-14.48312 2.88158,5.03382 6.19951,14.49739 3.96357,23.88076 -7.14149,-9.42443 -14.43873,-19.37844 -21.14152,-19.64782"
           inkscape:connector-curvature="0" />
        <path
           style="fill:#ffffff;fill-opacity:1;fill-rule:nonzero;stroke:#000000;stroke-width:5;stroke-linecap:round;stroke-linejoin:miter;stroke-miterlimit:4;stroke-opacity:1;stroke-dasharray:none"
           id="path2387-1"
           d="m 305.32208,406.46578 c -31.23446,0 -56.60334,29.33139 -56.60334,65.47171 0,36.1403 25.36888,65.47171 56.60334,65.47171 18.35565,0 34.64439,-10.1409 44.98476,-25.82946 10.33966,15.69995 26.66388,25.82946 45.02732,25.82946 31.23446,0 56.60332,-29.33142 56.60333,-65.47171 0,-36.1403 -25.36887,-65.4717 -56.60333,-65.47171 -18.3613,0 -34.68747,10.13264 -45.02732,25.82947 -10.34057,-15.68518 -26.63144,-25.82946 -44.98476,-25.82947 z"
           inkscape:connector-curvature="0" />
        <path
           style="fill:#000000;fill-opacity:0.31372603;fill-rule:evenodd;stroke:none"
           id="path3407-8"
           d="m 352.02155,517.37473 c -9.28799,0 -19.38363,10.32725 -18.97981,16.84971 0.40383,6.52247 16.55686,33.69941 20.19128,33.69941 3.63443,0 17.76833,-26.63341 17.36451,-34.24295 -0.40383,-7.60955 -12.5186,-16.84972 -18.57598,-16.30617 z"
           inkscape:connector-curvature="0" />
        <path
           style="fill:url(#linearGradient3405);fill-opacity:1;fill-rule:evenodd;stroke:#000000;stroke-width:5;stroke-linecap:butt;stroke-linejoin:miter;stroke-miterlimit:4;stroke-opacity:1;stroke-dasharray:none"
           id="path2391-7"
           d="m 349.90023,506.76588 c -9.28799,0 -19.38363,9.3062 -18.97981,15.18379 0.40383,5.8776 16.55686,30.36759 20.19128,30.36759 3.63443,0 17.76833,-24.00019 17.36451,-30.85739 -0.40383,-6.8572 -12.5186,-15.1838 -18.57598,-14.69399 z"
           inkscape:connector-curvature="0" />
        <path
           style="fill:#000000;fill-opacity:1;fill-rule:nonzero;stroke:#000000;stroke-width:3.16929007;stroke-linecap:round;stroke-linejoin:miter;stroke-miterlimit:4;stroke-opacity:1;stroke-dasharray:none"
           id="path2411-0"
           transform="matrix(1.57764,0,0,1.57764,-190.567,-292.522)"
           d="m 340.57116,487.36658 a 10.387106,10.387106 0 1 1 -20.77421,0 10.387106,10.387106 0 1 1 20.77421,0 z"
           inkscape:connector-curvature="0" />
        <path
           style="fill:#784421;fill-opacity:1;fill-rule:evenodd;stroke:#000000;stroke-width:5;stroke-linecap:round;stroke-linejoin:round;stroke-miterlimit:4;stroke-opacity:1;stroke-dasharray:none"
           id="path3193-5"
           d="m 235.32229,488.19932 c -13.38868,-4.60902 -27.22104,7.58384 -29.86518,14.17993 13.51228,-3.45229 19.71963,-4.4258 23.21838,-1.38072 -1.50674,3.37144 -17.40824,6.74191 -22.33733,28.87115 12.42877,-8.61661 22.30354,-18.57557 26.27241,-14.48312 -2.88158,5.03382 -6.19951,14.49739 -3.96357,23.88076 7.14149,-9.42443 14.43873,-19.37844 21.14152,-19.64782"
           inkscape:connector-curvature="0" />
        <path
           style="fill:#000000;fill-opacity:1;fill-rule:nonzero;stroke:#000000;stroke-width:3.16929007;stroke-linecap:round;stroke-linejoin:miter;stroke-miterlimit:4;stroke-opacity:1;stroke-dasharray:none"
           id="path3301-1"
           transform="matrix(1.57764,0,0,1.57764,-149.067,-292.522)"
           d="m 340.57116,487.36658 a 10.387106,10.387106 0 1 1 -20.77421,0 10.387106,10.387106 0 1 1 20.77421,0 z"
           inkscape:connector-curvature="0" />
        <path
           style="fill:#ffffff;fill-opacity:1;fill-rule:nonzero;stroke:none"
           id="path3341-1"
           transform="matrix(0.809524,0,0,0.809524,159.084,385.283)"
           d="m 209.5,105.42596 a 5.25,5.25 0 1 1 -10.5,0 5.25,5.25 0 1 1 10.5,0 z"
           inkscape:connector-curvature="0" />
        <path
           style="fill:#ffffff;fill-opacity:1;fill-rule:nonzero;stroke:none"
           id="path3343-0"
           transform="matrix(0.809524,0,0,0.809524,200.584,385.283)"
           d="m 209.5,105.42596 a 5.25,5.25 0 1 1 -10.5,0 5.25,5.25 0 1 1 10.5,0 z"
           inkscape:connector-curvature="0" />
        <path
           style="fill:#000000;fill-opacity:0.31372603;fill-rule:evenodd;stroke:none"
           id="path3200-3"
           transform="translate(162.179,366.202)"
           d="m 337.9375,128.65625 c -0.41261,-6e-4 -0.83163,0.0205 -1.25,0.0312 16.21208,13.06454 23.07333,43.29712 14.78125,85.34375 -11.02308,55.89475 -53.57658,80.00799 -67.71875,81.28125 4.59211,6.52643 60.97088,-8.12575 82.34375,-69.65625 20.29853,-58.43754 5.92075,-96.95013 -28.15625,-97 z"
           inkscape:connector-curvature="0" />
        <path
           style="fill:#000000;fill-opacity:0.31372603;fill-rule:evenodd;stroke:none"
           id="path3205-0"
           transform="translate(162.179,366.202)"
           d="m 4.0625,160.84375 c -3.45178493,16.50581 -1.2985339,38.67265 7.78125,64.8125 23.85482,68.67582 91.32713,78.987 81.71875,66.59375 C 89.453584,286.95016 86.042108,281.57547 83.25,276.1875 64.298498,271.64609 29.202204,251.81127 13.34375,206.15625 7.4641999,189.22958 4.4898572,173.9758 4.0625,160.84375 z m 71.28125,6.34375 c -0.882853,8.53607 -1.856214,17.61189 -2.28125,27.125 0.993286,-9.79063 2.079391,-18.94113 2.28125,-27.125 z"
           inkscape:connector-curvature="0" />
      </g>
      <g
         inkscape:export-ydpi="29.668859"
         inkscape:export-xdpi="29.668859"
         inkscape:export-filename="/home/bocian/Pulpit/rose.png"
         id="g3767"
         style="display:inline"
         transform="translate(1573.3051,-322.58275)">
        <path
           style="fill:#1a1a1a;fill-opacity:1;fill-rule:nonzero;stroke:#000000;stroke-width:5.31262016;stroke-linecap:butt;stroke-linejoin:miter;stroke-miterlimit:4;stroke-opacity:1;stroke-dasharray:none;display:inline"
           d="m -294.64483,51.061806 c -0.71204,-17.527784 1.79319,-34.804454 -0.13139,-53.34586 -2.12089,-20.432794 -15.53527,-57.463483 -92.86472,-56.090463 -77.32945,1.373019 -88.09236,40.876647 -88.20836,58.74424351 l -0.34639,53.35287249 c 62.8919,-10.20886 122.27941,-8.855405 181.55086,-2.660793 z"
           id="path2948-0"
           sodipodi:nodetypes="cszscc"
           inkscape:connector-curvature="0" />
        <path
           sodipodi:nodetypes="cccccc"
           id="path2995-4"
           d="m -478.42811,55.375849 -0.24782,-12.20227 c 60.0853,-15.208657 120.04331,-15.855203 186.13158,-4.010057 l -3.13211,11.599162 c -63.28957,17.750246 -124.35057,15.638158 -182.75165,4.613077 l 0,8.8e-5 z"
           style="fill:#4d4d4d;fill-opacity:1;stroke:#000000;stroke-width:5.5;stroke-miterlimit:4;stroke-opacity:1;stroke-dasharray:none;display:inline"
           inkscape:connector-curvature="0" />
        <path
           sodipodi:nodetypes="cscscssczzcc"
           id="path3042-2-5"
           d="m -383.08921,54.380812 c 43.45902,-0.963342 79.90979,-11.528845 108.01098,-21.371409 9.30819,-3.260219 16.14503,0.965788 20.64912,6.038083 7.01482,10.063939 8.0974,12.871049 4.7435,12.431016 -1.12274,-0.147308 -2.78791,-1.022859 -4.66131,-2.139354 -22.76221,-0.661929 -59.70675,17.194811 -128.8889,17.394692 -35.31669,0.101982 -101.67334,-9.668206 -124.53736,-17.817836 -4.5723,-1.629749 -8.39468,2.186028 -9.73118,5.78133 -1.07799,0.02518 -3.00519,-21.042802 16.29783,-16.115638 19.30301,4.927164 74.65826,16.762369 118.11729,15.799009 l 4e-5,1.07e-4 -10e-6,0 z"
           style="fill:#333333;fill-opacity:1;stroke:#000000;stroke-width:6.68483257;stroke-linecap:round;stroke-miterlimit:4;stroke-opacity:1;stroke-dasharray:none;display:inline"
           inkscape:connector-curvature="0" />
      </g>
    </g>
  </g>
</svg>
